<?xml version="1.0" encoding="utf-8"?>
<!-- Generator: Adobe Illustrator 27.3.1, SVG Export Plug-In . SVG Version: 6.00 Build 0)  -->
<svg version="1.1" id="Слой_1" xmlns="http://www.w3.org/2000/svg" xmlns:xlink="http://www.w3.org/1999/xlink" x="0px" y="0px"
	 viewBox="0 0 339.78 208.97" style="enable-background:new 0 0 339.78 208.97;" xml:space="preserve">
<style type="text/css">
	.st0{fill:#EA0029;}
</style>
<g>
	<g>
		<g>
			<path class="st0" d="M12.56,156.35h25.5c0.38,0,0.7,0.31,0.7,0.7v23.22c0,0.38-0.31,0.7-0.7,0.7l-30.18,0c-0.02,0-0.04,0-0.06,0
				c-1.88-0.12-3.53-0.79-4.95-2.03c-1.43-1.24-2.33-2.79-2.7-4.65C0.06,173.76,0,173.22,0,172.67c0-0.56,0.06-1.11,0.17-1.67
				c0.37-1.89,1.3-3.46,2.78-4.71c1.48-1.24,3.19-1.88,5.12-1.92h23.36c0.38,0,0.7-0.31,0.7-0.7l0,0c0-0.38-0.31-0.7-0.7-0.7H7.32
				c-0.38,0-0.7-0.31-0.7-0.7l0,0C6.63,159.01,9.28,156.35,12.56,156.35z M32.13,173.59v-1.89c0-0.38-0.31-0.7-0.7-0.7H8.13
				c-0.41,0.04-0.76,0.21-1.06,0.53c-0.3,0.32-0.45,0.69-0.45,1.11c0,0.43,0.14,0.8,0.42,1.11c0.28,0.32,0.62,0.49,1.03,0.53h23.36
				C31.82,174.28,32.13,173.97,32.13,173.59z"/>
		</g>
		<g>
			<path class="st0" d="M80.27,156.35c0.38,0,0.7,0.31,0.7,0.7v15.56c0,0.59-0.06,1.15-0.17,1.67c-0.33,1.63-1.1,3.04-2.28,4.23
				c-1.19,1.19-2.6,1.95-4.23,2.28c-0.19,0.04-0.53,0.07-1.03,0.11c-0.5,0.04-0.77,0.06-0.81,0.06H50.67
				c-0.08,0-0.36-0.02-0.86-0.06c-0.5-0.04-0.84-0.07-1.03-0.11c-1.63-0.33-3.03-1.1-4.2-2.28c-1.17-1.19-1.92-2.6-2.26-4.23
				c-0.11-0.52-0.17-1.08-0.17-1.67v-15.56c0-0.38,0.31-0.7,0.7-0.7h5.23c0.38,0,0.7,0.31,0.7,0.7v15.56c0,0.48,0.16,0.88,0.47,1.2
				c0.31,0.32,0.71,0.47,1.2,0.47h22.16c0.48,0,0.88-0.16,1.2-0.47c0.31-0.32,0.47-0.71,0.47-1.2v-15.56c0-0.38,0.31-0.7,0.7-0.7
				H80.27z"/>
		</g>
		<g>
			<path class="st0" d="M90.93,172.61c0,0.48,0.16,0.88,0.47,1.2c0.32,0.32,0.71,0.47,1.2,0.47h19.35c0.38,0,0.7,0.31,0.7,0.7v5.29
				c0,0.38-0.31,0.7-0.7,0.7H92.6c-0.56,0-1.11-0.07-1.67-0.22c-1.63-0.3-3.03-1.04-4.2-2.23c-1.17-1.19-1.92-2.6-2.26-4.23
				c-0.11-0.52-0.17-1.08-0.17-1.67v-25.48c0-0.38,0.31-0.7,0.7-0.7h5.24c0.38,0,0.7,0.31,0.7,0.7v8.58c0,0.38,0.31,0.7,0.7,0.7
				h14.39c3.66,0,6.63,2.97,6.63,6.63l0,0H91.63c-0.38,0-0.7,0.31-0.7,0.7V172.61z"/>
		</g>
		<g>
			<path class="st0" d="M152.91,163.03c0.93,1.74,1.39,3.62,1.39,5.62c0,2-0.46,3.88-1.39,5.62c-1.04,2-2.52,3.62-4.45,4.84
				c-1.93,1.23-4.07,1.84-6.4,1.84h-14.25c-2.34,0-4.48-0.61-6.43-1.84c-1.95-1.23-3.44-2.84-4.48-4.84
				c-0.89-1.74-1.34-3.62-1.34-5.62c0-2,0.45-3.88,1.34-5.62c1-1.93,2.41-3.49,4.23-4.68c1.82-1.19,3.84-1.84,6.07-1.95h15.48
				c2.23,0.11,4.25,0.76,6.07,1.95C150.55,159.55,151.94,161.1,152.91,163.03z M142.05,174.28c1.56,0,2.91-0.58,4.04-1.73
				c0.95-0.97,1.53-2.28,1.58-3.64c0.06-1.59-0.45-2.95-1.53-4.09c-1.02-1.08-2.26-1.67-3.7-1.78H127.4
				c-1.48,0.11-2.73,0.71-3.73,1.78c-1,1.08-1.5,2.36-1.5,3.84c0,1.56,0.55,2.89,1.64,3.98c1.09,1.1,2.42,1.64,3.98,1.64H142.05z"/>
		</g>
		<g>
			<path class="st0" d="M214.32,163.22l-20.34,9.74c-0.67,0.32-0.44,1.32,0.3,1.32h19.74c0.38,0,0.7,0.31,0.7,0.7l0,0
				c0,3.31-2.68,5.99-5.99,5.99H176.6c-0.38,0-0.7-0.31-0.7-0.7v-5.55c0-0.27,0.15-0.51,0.4-0.63l20.34-9.74
				c0.67-0.32,0.44-1.32-0.3-1.32H176.6c-0.38,0-0.7-0.31-0.7-0.7l0,0c0-3.31,2.68-5.99,5.99-5.99h32.13c0.38,0,0.7,0.31,0.7,0.7
				v5.55C214.71,162.86,214.56,163.11,214.32,163.22z"/>
		</g>
		<g>
			<path class="st0" d="M255.2,163.03c0.93,1.74,1.39,3.62,1.39,5.62c0,2-0.46,3.88-1.39,5.62c-1.04,2-2.52,3.62-4.45,4.84
				c-1.93,1.23-4.07,1.84-6.4,1.84h-14.25c-2.34,0-4.48-0.61-6.43-1.84c-1.95-1.23-3.44-2.84-4.48-4.84
				c-0.89-1.74-1.34-3.62-1.34-5.62c0-2,0.45-3.88,1.34-5.62c1-1.93,2.41-3.49,4.23-4.68c1.82-1.19,3.84-1.84,6.07-1.95h15.48
				c2.23,0.11,4.25,0.76,6.07,1.95C252.84,159.55,254.23,161.1,255.2,163.03z M244.34,174.28c1.56,0,2.91-0.58,4.04-1.73
				c0.95-0.97,1.53-2.28,1.58-3.64c0.06-1.59-0.45-2.95-1.53-4.09c-1.02-1.08-2.26-1.67-3.7-1.78h-15.03
				c-1.48,0.11-2.73,0.71-3.73,1.78c-1,1.08-1.5,2.36-1.5,3.84c0,1.56,0.55,2.89,1.64,3.98c1.09,1.1,2.42,1.64,3.98,1.64H244.34z"/>
		</g>
		<g>
			<path class="st0" d="M296.51,163.03c0.93,1.74,1.39,3.62,1.39,5.62c0,2-0.46,3.88-1.39,5.62c-1.04,2-2.52,3.62-4.45,4.84
				c-1.93,1.23-4.07,1.84-6.4,1.84H271.4c-2.34,0-4.48-0.61-6.43-1.84c-1.95-1.23-3.44-2.84-4.48-4.84
				c-0.89-1.74-1.34-3.62-1.34-5.62c0-2,0.45-3.88,1.34-5.62c1-1.93,2.41-3.49,4.23-4.68c1.82-1.19,3.84-1.84,6.07-1.95h15.48
				c2.23,0.11,4.25,0.76,6.07,1.95C294.16,159.55,295.55,161.1,296.51,163.03z M285.65,174.28c1.56,0,2.91-0.58,4.04-1.73
				c0.95-0.97,1.53-2.28,1.58-3.64c0.06-1.59-0.45-2.95-1.53-4.09c-1.02-1.08-2.26-1.67-3.7-1.78h-15.03
				c-1.48,0.11-2.73,0.71-3.73,1.78c-1,1.08-1.5,2.36-1.5,3.84c0,1.56,0.55,2.89,1.64,3.98c1.09,1.1,2.42,1.64,3.98,1.64H285.65z"/>
		</g>
		<g>
			<path class="st0" d="M339.78,164.7v16.26h0c-3.66,0-6.63-2.97-6.63-6.63v-9.63c0-0.45-0.14-0.83-0.42-1.14
				c-0.28-0.32-0.62-0.49-1.03-0.53h-7.32c-0.38,0-0.7,0.31-0.7,0.7v16.54c0,0.38-0.31,0.7-0.7,0.7h-5.23c-0.38,0-0.7-0.31-0.7-0.7
				v-16.54c0-0.38-0.31-0.7-0.7-0.7h-8.02c-0.38,0-0.7,0.31-0.7,0.7v16.54c0,0.38-0.31,0.7-0.7,0.7h-5.24c-0.38,0-0.7-0.31-0.7-0.7
				V157.1c0-0.38,0.31-0.7,0.7-0.7h30.15c0.45,0,0.87,0.06,1.28,0.17c1.71,0.33,3.17,1.15,4.4,2.45
				C339.04,160.62,339.78,162.51,339.78,164.7z"/>
		</g>
	</g>
	<g>
		<path class="st0" d="M105.45,205.22h1.79c-0.11,1.06-0.56,1.94-1.35,2.67c-0.79,0.72-1.72,1.08-2.8,1.08h-2
			c-1.17,0-2.16-0.41-2.97-1.23c-0.82-0.82-1.23-1.81-1.23-2.97c0-1.15,0.41-2.14,1.23-2.96c0.82-0.82,1.81-1.22,2.97-1.22h2
			c1.08,0,2.01,0.36,2.8,1.08c0.79,0.72,1.24,1.61,1.35,2.67h-1.79c-0.07-0.37-0.21-0.7-0.43-1c-0.23-0.3-0.51-0.54-0.84-0.71
			c-0.33-0.17-0.69-0.26-1.08-0.26h-2c-0.39,0-0.75,0.09-1.09,0.26c-0.34,0.17-0.62,0.41-0.84,0.71c-0.32,0.43-0.48,0.91-0.48,1.44
			c0,0.53,0.16,1.01,0.48,1.44c0.22,0.3,0.5,0.53,0.84,0.7c0.34,0.17,0.7,0.25,1.09,0.25h2c0.39,0,0.75-0.08,1.08-0.25
			c0.33-0.17,0.61-0.4,0.84-0.7C105.23,205.92,105.38,205.59,105.45,205.22z"/>
		<path class="st0" d="M119.28,200.59l4.44,8.36h-2l-1.28-2.39h-3.82l-1.27,2.39h-2.02l4.44-8.36H119.28z M117.55,204.77h1.94
			l-0.97-1.82L117.55,204.77z"/>
		<path class="st0" d="M136.63,205.67l3.39,3.3h-2.55l-3.41-3.3h-2.66v3.3h-1.79v-8.38h7.87c0.7,0,1.29,0.25,1.79,0.75
			c0.5,0.5,0.75,1.1,0.75,1.79c0,0.7-0.25,1.3-0.75,1.79c-0.5,0.5-1.1,0.75-1.79,0.75H136.63z M131.41,203.89h6.08
			c0.21,0,0.39-0.08,0.54-0.22c0.15-0.15,0.22-0.33,0.22-0.54c0-0.21-0.07-0.39-0.22-0.54c-0.15-0.15-0.33-0.22-0.54-0.22h-6.08
			V203.89z"/>
		<path class="st0" d="M163.11,205.67l3.39,3.3h-2.55l-3.41-3.3h-2.66v3.3h-1.79v-8.38h7.87c0.7,0,1.29,0.25,1.79,0.75
			c0.5,0.5,0.75,1.1,0.75,1.79c0,0.7-0.25,1.3-0.75,1.79c-0.5,0.5-1.1,0.75-1.79,0.75H163.11z M157.89,203.89h6.08
			c0.21,0,0.39-0.08,0.54-0.22c0.15-0.15,0.22-0.33,0.22-0.54c0-0.21-0.08-0.39-0.22-0.54c-0.15-0.15-0.33-0.22-0.54-0.22h-6.08
			V203.89z"/>
		<path class="st0" d="M174.26,202.37v1.52h8.62v1.78h-8.62v1.51h8.62v1.79h-10.4v-8.38h10.4v1.78H174.26z"/>
		<path class="st0" d="M199.45,200.59v8.38h-2.55l-6.06-5.9v5.9h-1.78v-8.38h1.78v0.01l6.84,6.63v-6.65H199.45z"/>
		<path class="st0" d="M216.02,200.59v1.78h-4.36v6.6h-1.79v-6.6h-4.26v-1.78H216.02z"/>
		<path class="st0" d="M228.04,200.59l4.44,8.36h-2l-1.28-2.39h-3.82l-1.27,2.39h-2.02l4.44-8.36H228.04z M226.31,204.77h1.94
			l-0.97-1.82L226.31,204.77z"/>
		<path class="st0" d="M248.89,207.18v1.79h-10.4v-8.38h1.78v6.59H248.89z"/>
	</g>
	<g>
		<g>
			<g>
				<path class="st0" d="M233.1,103.06L233.1,103.06c9.16-0.05,16.54-7.52,16.49-16.68l-0.38-67.98l-4.75-2.22
					c-26.37-12.35-53.24-17.8-77.7-15.77c-18.83,1.56-34.98,7.63-46.79,17.39l-7.11-4.14c-7.91-4.61-18.06-1.94-22.68,5.97l0,0
					l18.39,10.72c-6.92,10.32-10.57,23.03-10.85,37.83l-0.02,35.06h16.58l0.02-34.82c0.24-11.96,3.14-21.93,8.63-29.7l110.17,64.24
					L233.1,103.06z M135.6,26.91c8.66-5.46,19.76-8.91,32.53-9.97c19.84-1.65,42.58,2.65,64.55,12.12l0.31,54.64L135.6,26.91z"/>
			</g>
			<g>
				<g>
					<path class="st0" d="M249.32,128.22H114.38c-9.23,0-16.71-7.48-16.71-16.71v0h134.94C241.85,111.52,249.32,119,249.32,128.22
						L249.32,128.22z"/>
				</g>
			</g>
		</g>
	</g>
</g>
</svg>
